<?xml version="1.0" standalone="no"?>
<!DOCTYPE svg PUBLIC "-//W3C//DTD SVG 20010904//EN"
 "http://www.w3.org/TR/2001/REC-SVG-20010904/DTD/svg10.dtd">
<svg version="1.0" xmlns="http://www.w3.org/2000/svg"
 width="255.000000pt" height="255.000000pt" viewBox="0 0 255.000000 255.000000"
 preserveAspectRatio="xMidYMid meet">
<metadata>
Created by potrace 1.11, written by Peter Selinger 2001-2013
</metadata>
<g transform="translate(0.000000,255.000000) scale(0.100000,-0.100000)"
fill="#000000" stroke="none">
<path d="M0 1275 l0 -1275 1275 0 1275 0 0 1275 0 1275 -1275 0 -1275 0 0
-1275z m873 1008 c103 -71 319 -218 481 -328 162 -110 295 -203 296 -206 0 -5
-197 -169 -258 -215 -12 -9 46 -46 282 -183 163 -95 296 -177 294 -181 -3 -10
-1285 -1080 -1293 -1080 -3 0 -5 179 -5 398 l0 398 95 77 95 76 2 -286 3 -286
378 342 c207 188 377 343 377 345 0 2 -90 57 -200 121 -141 82 -204 114 -213
107 -6 -5 -128 -102 -269 -216 -141 -113 -259 -206 -262 -206 -4 0 -6 216 -6
480 0 310 4 480 10 480 5 0 123 -65 261 -145 138 -80 254 -145 258 -145 3 0
37 24 74 54 l68 54 -238 151 -238 151 -3 -76 c-2 -41 -6 -74 -10 -72 -4 2 -46
25 -94 52 l-88 50 0 208 c1 114 4 208 9 208 4 0 91 -57 194 -127z"/>
<path d="M867 1583 c-9 -8 -9 -223 -1 -223 7 0 175 132 172 136 -5 4 -160 94
-162 94 -2 0 -6 -3 -9 -7z"/>
</g>
</svg>
